<?xml version="1.0" encoding="UTF-8"?>
<svg id="Layer_2" data-name="Layer 2" xmlns="http://www.w3.org/2000/svg" viewBox="0 0 99.94 99.8">
  <defs>
    <style>
      .cls-1 {
        fill: none;
      }

      .cls-2 {
        fill: #c1d1f7;
      }

      .cls-3 {
        fill: #f6f6f6;
      }

      .cls-4 {
        fill: #bbb;
      }

      .cls-5 {
        fill: #4c5657;
      }

      .cls-6 {
        fill: #3e3228;
      }

      .cls-7 {
        fill: #adbeee;
      }

      .cls-8 {
        fill: #596060;
      }

      .cls-9 {
        fill: #dcdcdc;
      }
    </style>
  </defs>
  <g id="Layer_1-2" data-name="Layer 1">
    <g>
      <rect class="cls-1" width="99.94" height="99.8"/>
      <g id="_18._Stetoscope" data-name=" 18. Stetoscope">
        <path class="cls-6" d="M55.05,90.57c-11.92,0-21.61-9.69-21.61-21.61v-6.36c0-.7.57-1.27,1.27-1.27s1.27.57,1.27,1.27v6.36c0,10.53,8.54,19.07,19.07,19.07s19.07-8.54,19.07-19.07v-24.15c0-.7.57-1.27,1.27-1.27s1.27.57,1.27,1.27v24.15c0,11.92-9.69,21.61-21.61,21.61Z"/>
        <path class="cls-2" d="M71.57,39.73h7.63v6.36h-7.63v-6.36Z"/>
        <path class="cls-6" d="M79.2,47.36h-7.63c-.7,0-1.27-.57-1.27-1.27v-6.36c0-.7.57-1.27,1.27-1.27h7.63c.7,0,1.27.57,1.27,1.27v6.36c0,.7-.57,1.27-1.27,1.27ZM72.84,44.82h5.08v-3.81h-5.08v3.81Z"/>
        <path class="cls-8" d="M27.09,18.13h-3.81v-7.63h3.81c2.11,0,3.81,1.71,3.81,3.81s-1.71,3.81-3.81,3.81Z"/>
        <path class="cls-5" d="M27.09,14.31h-3.81v3.81h3.81c2.11,0,3.81-1.71,3.81-3.81,0-.67-.18-1.33-.51-1.91-.68,1.18-1.94,1.91-3.3,1.91Z"/>
        <path class="cls-6" d="M27.09,19.4h-3.81c-.7,0-1.27-.57-1.27-1.27v-7.63c0-.7.57-1.27,1.27-1.27h3.81c2.81,0,5.08,2.28,5.08,5.08s-2.28,5.08-5.08,5.08ZM24.54,16.85h2.54c1.4,0,2.54-1.14,2.54-2.54s-1.14-2.54-2.54-2.54h-2.54v5.08Z"/>
        <path class="cls-8" d="M42.34,18.13h3.81v-7.63h-3.81c-2.11,0-3.81,1.71-3.81,3.81s1.71,3.81,3.81,3.81Z"/>
        <path class="cls-5" d="M39.04,12.41c-.34.58-.51,1.24-.51,1.91,0,2.11,1.71,3.81,3.81,3.81h3.81v-3.81h-3.81c-1.36,0-2.62-.73-3.3-1.91Z"/>
        <path class="cls-6" d="M46.15,19.4h-3.81c-2.81,0-5.08-2.28-5.08-5.08s2.28-5.08,5.08-5.08h3.81c.7,0,1.27.57,1.27,1.27v7.63c0,.7-.57,1.27-1.27,1.27ZM42.34,11.77c-1.4,0-2.54,1.14-2.54,2.54s1.14,2.54,2.54,2.54h2.54v-5.08h-2.54Z"/>
        <path class="cls-9" d="M46.15,11.77v5.08h6.36v21.61c0,9.83-7.97,17.79-17.79,17.79s-17.79-7.97-17.79-17.79v-21.61h6.36v-5.08h-6.36c-2.81,0-5.08,2.28-5.08,5.08v21.61c0,12.64,10.24,22.88,22.88,22.88s22.88-10.24,22.88-22.88v-21.61c0-2.81-2.28-5.08-5.08-5.08h-6.36Z"/>
        <path class="cls-4" d="M34.71,57.53c-12.64,0-22.88-10.24-22.88-22.88v3.81c0,12.64,10.24,22.88,22.88,22.88s22.88-10.24,22.88-22.88v-3.81c0,12.64-10.24,22.88-22.88,22.88Z"/>
        <path class="cls-6" d="M34.71,62.61c-13.32,0-24.15-10.83-24.15-24.15v-11.44c0-.7.57-1.27,1.27-1.27s1.27.57,1.27,1.27v11.44c0,11.92,9.69,21.61,21.61,21.61s21.61-9.69,21.61-21.61v-21.61c0-2.11-1.71-3.81-3.81-3.81h-5.08v2.54h5.08c.7,0,1.27.57,1.27,1.27v21.61c0,10.53-8.54,19.07-19.07,19.07s-19.07-8.54-19.07-19.07v-21.61c0-.7.57-1.27,1.27-1.27h5.08v-2.54h-5.08c-2.11,0-3.81,1.71-3.81,3.81v5.08c0,.7-.57,1.27-1.27,1.27s-1.27-.57-1.27-1.27v-5.08c0-3.51,2.85-6.36,6.36-6.36h6.36c.7,0,1.27.57,1.27,1.27v5.08c0,.7-.57,1.27-1.27,1.27h-5.08v20.34c0,9.13,7.4,16.52,16.52,16.52s16.52-7.4,16.52-16.52v-20.34h-5.08c-.7,0-1.27-.57-1.27-1.27v-5.08c0-.7.57-1.27,1.27-1.27h6.36c3.51,0,6.36,2.85,6.36,6.36v21.61c0,13.32-10.83,24.15-24.15,24.15Z"/>
        <path class="cls-6" d="M34.71,49.9c-10.52-.01-19.05-8.54-19.07-19.07v-5.08c0-.7.57-1.27,1.27-1.27s1.27.57,1.27,1.27v5.08c0,9.13,7.4,16.52,16.52,16.52s16.52-7.4,16.52-16.52v-5.08c0-.7.57-1.27,1.27-1.27s1.27.57,1.27,1.27v5.08c-.01,10.52-8.54,19.05-19.07,19.07Z"/>
        <path class="cls-2" d="M30.9,54.98h7.63v7.63h-7.63v-7.63Z"/>
        <path class="cls-7" d="M30.9,58.8h7.63v3.81h-7.63v-3.81Z"/>
        <path class="cls-6" d="M38.52,63.88h-7.63c-.7,0-1.27-.57-1.27-1.27v-7.63c0-.7.57-1.27,1.27-1.27h7.63c.7,0,1.27.57,1.27,1.27v7.63c0,.7-.57,1.27-1.27,1.27ZM32.17,61.34h5.08v-5.08h-5.08v5.08Z"/>
        <circle class="cls-9" cx="75.38" cy="28.29" r="12.71"/>
        <path class="cls-4" d="M75.38,37.19c-6.28,0-11.62-4.59-12.57-10.8-1.05,6.94,3.73,13.42,10.67,14.47,6.94,1.05,13.42-3.73,14.47-10.67.19-1.26.19-2.54,0-3.8-.94,6.21-6.28,10.8-12.57,10.8h0Z"/>
        <path class="cls-6" d="M75.38,42.27c-7.72,0-13.98-6.26-13.98-13.98s6.26-13.98,13.98-13.98c9.4,0,16.17,9.16,13.35,18.18-.2.67-.9,1.06-1.58.86-.67-.2-1.06-.9-.86-1.58,0-.02,0-.03.01-.05,2.31-7.37-3.22-14.87-10.92-14.87-6.32,0-11.44,5.12-11.44,11.44,0,6.32,5.12,11.44,11.44,11.44,2.99,0,5.87-1.17,8.01-3.27.49-.5,1.29-.51,1.8-.03.5.49.51,1.29.03,1.8-.01.01-.03.03-.04.04-2.61,2.57-6.13,4.01-9.79,4h0Z"/>
        <circle class="cls-3" cx="75.38" cy="28.29" r="6.36"/>
        <path class="cls-9" d="M75.38,30.84c-2.78,0-5.23-1.8-6.06-4.45-1.05,3.35.81,6.92,4.16,7.96s6.92-.81,7.96-4.16c.39-1.24.39-2.56,0-3.8-.83,2.65-3.29,4.45-6.06,4.45Z"/>
        <path class="cls-6" d="M75.38,35.92c-4.21,0-7.63-3.41-7.63-7.63s3.41-7.63,7.63-7.63,7.63,3.41,7.63,7.63c0,4.21-3.42,7.62-7.63,7.63ZM75.38,23.21c-2.81,0-5.08,2.28-5.08,5.08s2.28,5.08,5.08,5.08,5.08-2.28,5.08-5.08-2.28-5.08-5.08-5.08Z"/>
      </g>
    </g>
  </g>
</svg>