<?xml version="1.0" encoding="UTF-8"?>
<svg id="Layer_2" data-name="Layer 2" xmlns="http://www.w3.org/2000/svg" viewBox="0 0 99.94 99.8">
  <defs>
    <style>
      .cls-1, .cls-2 {
        fill: none;
      }

      .cls-2 {
        stroke: #3e3228;
        stroke-miterlimit: 10;
        stroke-width: .5px;
      }

      .cls-2, .cls-3, .cls-4, .cls-5, .cls-6, .cls-7, .cls-8 {
        fill-rule: evenodd;
      }

      .cls-3 {
        fill: #93c6dd;
      }

      .cls-4 {
        fill: #d8d8dd;
      }

      .cls-5 {
        fill: #ecedf2;
      }

      .cls-6 {
        fill: #525c66;
      }

      .cls-7 {
        fill: #3e3228;
      }

      .cls-8 {
        fill: #ed3237;
      }
    </style>
  </defs>
  <g id="Layer_1-2" data-name="Layer 1">
    <g>
      <rect class="cls-1" width="99.94" height="99.8"/>
      <g id="Layer_1-3" data-name="Layer_1">
        <g id="_601813560" data-name=" 601813560">
          <g id="_195463560" data-name=" 195463560">
            <path class="cls-7" d="M70.48,85.33H28.5c-.44,0-.84-.39-.84-.89V25.84c0-.49.39-.89.84-.89h8.63c.49,0,.89.39.89.89v9.52h22.94v-9.52c0-.49.39-.89.84-.89h8.68c.44,0,.84.39.84.89v58.6c0,.49-.39.89-.84.89ZM29.34,83.6h40.25V26.68h-6.91v8.78c0,.89-.74,1.58-1.58,1.58h-23.23c-.89,0-1.58-.69-1.58-1.58v-8.78h-6.96v56.92Z"/>
          </g>
          <g id="_195461448" data-name=" 195461448">
            <path class="cls-7" d="M90.7,90.56H8.23c-.44,0-.84-.39-.84-.84v-5.28c0-.44.39-.84.84-.84h82.48c.49,0,.89.39.89.84v5.28c0,.44-.39.84-.89.84ZM9.11,88.83h80.75v-3.5H9.11v3.5Z"/>
          </g>
          <g id="_195463416" data-name=" 195463416">
            <path class="cls-7" d="M84.88,85.33h-14.4c-.49,0-.89-.39-.89-.89v-48.83c0-.49.39-.89.89-.89h14.4c.49,0,.84.39.84.89v48.83c0,.49-.35.89-.84.89ZM71.32,83.6h12.73v-47.16h-12.73v47.16Z"/>
          </g>
          <g id="_195463824" data-name=" 195463824">
            <path class="cls-7" d="M87.5,36.45h-17.02c-.49,0-.89-.39-.89-.84v-5.03c0-.44.39-.84.89-.84h17.02c.49,0,.84.39.84.84v5.03c0,.44-.35.84-.84.84ZM71.32,34.72h15.34v-3.26h-15.34v3.26Z"/>
          </g>
          <g id="_195463872" data-name=" 195463872">
            <path class="cls-7" d="M58.64,85.33h-18.35c-.44,0-.84-.39-.84-.89v-20.13c0-.49.39-.84.84-.84h18.35c.49,0,.89.35.89.84v20.13c0,.49-.39.89-.89.89ZM41.18,83.6h16.62v-18.45h-16.62v18.45Z"/>
          </g>
          <g id="_195463680" data-name=" 195463680">
            <path class="cls-7" d="M61.7,65.16h-24.47c-.44,0-.84-.35-.84-.84s.39-.84.84-.84h24.47c.49,0,.89.35.89.84s-.39.84-.89.84Z"/>
          </g>
          <g>
            <g id="_195463920" data-name=" 195463920">
              <path class="cls-7" d="M40.68,49.32h-6.22c-.49,0-.84-.39-.84-.84v-6.91c0-.49.35-.89.84-.89h6.22c.44,0,.84.39.84.89v6.91c0,.44-.39.84-.84.84ZM35.31,47.6h4.49v-5.18h-4.49v5.18Z"/>
            </g>
            <g id="_365284080" data-name=" 365284080">
              <path class="cls-7" d="M40.68,59.83h-6.22c-.49,0-.84-.39-.84-.89v-6.91c0-.44.35-.84.84-.84h6.22c.44,0,.84.39.84.84v6.91c0,.49-.39.89-.84.89ZM35.31,58.1h4.49v-5.18h-4.49v5.18Z"/>
            </g>
            <g id="_365283048" data-name=" 365283048">
              <path class="cls-7" d="M52.57,49.32h-6.17c-.49,0-.89-.39-.89-.84v-6.91c0-.49.39-.89.89-.89h6.17c.49,0,.84.39.84.89v6.91c0,.44-.35.84-.84.84ZM47.24,47.6h4.49v-5.18h-4.49v5.18Z"/>
            </g>
            <g id="_365284152" data-name=" 365284152">
              <path class="cls-7" d="M52.57,59.83h-6.17c-.49,0-.89-.39-.89-.89v-6.91c0-.44.39-.84.89-.84h6.17c.49,0,.84.39.84.84v6.91c0,.49-.35.89-.84.89ZM47.24,58.1h4.49v-5.18h-4.49v5.18Z"/>
            </g>
            <g id="_194585544" data-name=" 194585544">
              <path class="cls-7" d="M64.51,49.32h-6.22c-.44,0-.84-.39-.84-.84v-6.91c0-.49.39-.89.84-.89h6.22c.44,0,.84.39.84.89v6.91c0,.44-.39.84-.84.84ZM59.13,47.6h4.49v-5.18h-4.49v5.18Z"/>
            </g>
            <g id="_194585472" data-name=" 194585472">
              <path class="cls-7" d="M64.51,59.83h-6.22c-.44,0-.84-.39-.84-.89v-6.91c0-.44.39-.84.84-.84h6.22c.44,0,.84.39.84.84v6.91c0,.49-.39.89-.84.89ZM59.13,58.1h4.49v-5.18h-4.49v5.18Z"/>
            </g>
          </g>
          <g id="_195447672" data-name=" 195447672">
            <path class="cls-7" d="M73.09,26.68h-11.3c-.44,0-.84-.39-.84-.84v-4.69c0-.44.39-.84.84-.84h11.3c.44,0,.84.39.84.84v4.69c0,.44-.39.84-.84.84ZM62.68,24.95h9.52v-2.91h-9.52v2.91ZM37.13,26.68h-11.25c-.49,0-.84-.39-.84-.84v-4.69c0-.44.35-.84.84-.84h11.25c.49,0,.89.39.89.84v4.69c0,.44-.39.84-.89.84ZM26.72,24.95h9.57v-2.91h-9.57v2.91Z"/>
          </g>
          <g id="_194584848" data-name=" 194584848">
            <path class="cls-7" d="M61.1,37.04h-23.23c-.89,0-1.58-.69-1.58-1.58V11.14c0-.84.69-1.53,1.58-1.53h23.23c.84,0,1.58.69,1.58,1.53v24.32c0,.89-.74,1.58-1.58,1.58ZM38.02,35.36h22.94V11.29h-22.94v24.07Z"/>
          </g>
          <g id="_195447792" data-name=" 195447792">
            <path class="cls-7" d="M80.98,49.72h-6.66c-.49,0-.84-.35-.84-.84v-8.93c0-.44.35-.84.84-.84h6.66c.49,0,.89.39.89.84v8.93c0,.49-.39.84-.89.84ZM75.16,48.04h4.98v-7.25h-4.98v7.25Z"/>
          </g>
          <g id="_195447864" data-name=" 195447864">
            <path class="cls-7" d="M80.98,65.35h-6.66c-.49,0-.84-.39-.84-.84v-8.93c0-.49.35-.89.84-.89h6.66c.49,0,.89.39.89.89v8.93c0,.44-.39.84-.89.84ZM75.16,63.63h4.98v-7.2h-4.98v7.2Z"/>
          </g>
          <g id="_195447936" data-name=" 195447936">
            <path class="cls-7" d="M80.98,80.94h-6.66c-.49,0-.84-.35-.84-.84v-8.93c0-.44.35-.84.84-.84h6.66c.49,0,.89.39.89.84v8.93c0,.49-.39.84-.89.84ZM75.16,79.26h4.98v-7.25h-4.98v7.25Z"/>
          </g>
          <g id="_195448008" data-name=" 195448008">
            <path class="cls-7" d="M28.5,85.33h-14.4c-.49,0-.89-.39-.89-.89v-48.83c0-.49.39-.89.89-.89h14.4c.49,0,.84.39.84.89v48.83c0,.49-.35.89-.84.89ZM14.93,83.6h12.73v-47.16h-12.73v47.16Z"/>
          </g>
          <g id="_195448080" data-name=" 195448080">
            <path class="cls-7" d="M28.5,36.45H11.48c-.49,0-.89-.39-.89-.84v-5.03c0-.44.39-.84.89-.84h17.02c.49,0,.84.39.84.84v5.03c0,.44-.35.84-.84.84ZM12.32,34.72h15.34v-3.26h-15.34v3.26Z"/>
          </g>
          <g id="_195448152" data-name=" 195448152">
            <path class="cls-7" d="M24.65,49.72h-6.71c-.44,0-.84-.35-.84-.84v-8.93c0-.44.39-.84.84-.84h6.71c.44,0,.84.39.84.84v8.93c0,.49-.39.84-.84.84ZM18.83,48.04h4.93v-7.25h-4.93v7.25Z"/>
          </g>
          <g id="_195448224" data-name=" 195448224">
            <path class="cls-7" d="M24.65,65.35h-6.71c-.44,0-.84-.39-.84-.84v-8.93c0-.49.39-.89.84-.89h6.71c.44,0,.84.39.84.89v8.93c0,.44-.39.84-.84.84ZM18.83,63.63h4.93v-7.2h-4.93v7.2Z"/>
          </g>
          <g id="_195448296" data-name=" 195448296">
            <path class="cls-7" d="M24.65,80.94h-6.71c-.44,0-.84-.35-.84-.84v-8.93c0-.44.39-.84.84-.84h6.71c.44,0,.84.39.84.84v8.93c0,.49-.39.84-.84.84ZM18.83,79.26h4.93v-7.25h-4.93v7.25Z"/>
          </g>
          <g id="_195448392" data-name=" 195448392">
            <path class="cls-7" d="M49.46,84.64c-.44,0-.84-.35-.84-.84v-19.48c0-.49.39-.84.84-.84.49,0,.89.35.89.84v19.48c0,.49-.39.84-.89.84Z"/>
          </g>
          <g id="_195448464" data-name=" 195448464">
            <path class="cls-7" d="M52.08,31.51h-5.18c-.49,0-.89-.39-.89-.89v-3.85h-3.85c-.49,0-.84-.39-.84-.84v-5.23c0-.44.35-.84.84-.84h3.85v-3.85c0-.49.39-.89.89-.89h5.18c.49,0,.84.39.84.89v3.85h3.9c.44,0,.84.39.84.84v5.23c0,.44-.39.84-.84.84h-3.9v3.85c0,.49-.35.89-.84.89ZM47.74,29.79h3.5v-3.85c0-.49.35-.89.84-.89h3.85v-3.45h-3.85c-.49,0-.84-.39-.84-.89v-3.85h-3.5v3.85c0,.49-.39.89-.84.89h-3.9v3.45h3.9c.44,0,.84.39.84.89v3.85Z"/>
          </g>
        </g>
        <path class="cls-6" d="M27.66,34.72v-3.26h-15.34v3.26h15.34Z"/>
        <path class="cls-3" d="M23.76,40.79h-4.93v7.25h4.93v-7.25Z"/>
        <path class="cls-4" d="M17.94,39.11h6.71c.44,0,.84.39.84.84v8.93c0,.49-.39.84-.84.84h-6.71c-.44,0-.84-.35-.84-.84v-8.93c0-.44.39-.84.84-.84ZM17.94,54.7h6.71c.44,0,.84.39.84.89v8.93c0,.44-.39.84-.84.84h-6.71c-.44,0-.84-.39-.84-.84v-8.93c0-.49.39-.89.84-.89ZM17.94,70.34h6.71c.44,0,.84.39.84.84v8.93c0,.49-.39.84-.84.84h-6.71c-.44,0-.84-.35-.84-.84v-8.93c0-.44.39-.84.84-.84ZM14.93,83.6h12.73v-47.16h-12.73v47.16Z"/>
        <path class="cls-3" d="M23.76,72.01h-4.93v7.25h4.93v-7.25Z"/>
        <path class="cls-3" d="M18.83,63.63h4.93v-7.2h-4.93v7.2Z"/>
        <path class="cls-5" d="M29.34,35.61v48h10.11v-18.45h-2.22c-.44,0-.84-.35-.84-.84s.39-.84.84-.84h24.47c.49,0,.89.35.89.84s-.39.84-.89.84h-2.17v18.45h10.06V26.68h-6.91v8.78c0,.89-.74,1.58-1.58,1.58h-23.23c-.89,0-1.58-.69-1.58-1.58v-8.78h-6.96v8.93ZM64.51,59.83h-6.22c-.44,0-.84-.39-.84-.89v-6.91c0-.44.39-.84.84-.84h6.22c.44,0,.84.39.84.84v6.91c0,.49-.39.89-.84.89ZM52.57,59.83h-6.17c-.49,0-.89-.39-.89-.89v-6.91c0-.44.39-.84.89-.84h6.17c.49,0,.84.39.84.84v6.91c0,.49-.35.89-.84.89ZM40.68,59.83h-6.22c-.49,0-.84-.39-.84-.89v-6.91c0-.44.35-.84.84-.84h6.22c.44,0,.84.39.84.84v6.91c0,.49-.39.89-.84.89ZM64.51,49.32h-6.22c-.44,0-.84-.39-.84-.84v-6.91c0-.49.39-.89.84-.89h6.22c.44,0,.84.39.84.89v6.91c0,.44-.39.84-.84.84ZM52.57,49.32h-6.17c-.49,0-.89-.39-.89-.84v-6.91c0-.49.39-.89.89-.89h6.17c.49,0,.84.39.84.89v6.91c0,.44-.35.84-.84.84ZM40.68,49.32h-6.22c-.49,0-.84-.39-.84-.84v-6.91c0-.49.35-.89.84-.89h6.22c.44,0,.84.39.84.89v6.91c0,.44-.39.84-.84.84Z"/>
        <path class="cls-3" d="M50.35,65.16v18.45h7.45v-18.45h-7.45Z"/>
        <path class="cls-6" d="M58.64,85.33H9.11v3.5h80.75v-3.5h-31.22Z"/>
        <path class="cls-6" d="M62.68,24.95h9.52v-2.91h-9.52v2.91Z"/>
        <path class="cls-8" d="M55.93,25.05v-3.45h-3.85c-.49,0-.84-.39-.84-.89v-3.85h-3.5v3.85c0,.49-.39.89-.84.89h-3.9v3.45h3.9c.44,0,.84.39.84.89v3.85h3.5v-3.85c0-.49.35-.89.84-.89h3.85Z"/>
        <path class="cls-5" d="M52.92,19.87h3.9c.44,0,.84.39.84.84v5.23c0,.44-.39.84-.84.84h-3.9v3.85c0,.49-.35.89-.84.89h-5.18c-.49,0-.89-.39-.89-.89v-3.85h-3.85c-.49,0-.84-.39-.84-.84v-5.23c0-.44.35-.84.84-.84h3.85v-3.85c0-.49.39-.89.89-.89h5.18c.49,0,.84.39.84.89v3.85ZM38.02,35.36h22.94V11.29h-22.94v24.07Z"/>
        <g>
          <path class="cls-3" d="M51.73,52.92h-4.49v5.18h4.49v-5.18Z"/>
          <path class="cls-3" d="M39.8,58.1v-5.18h-4.49v5.18h4.49Z"/>
          <path class="cls-3" d="M35.31,47.6h4.49v-5.18h-4.49v5.18Z"/>
          <path class="cls-3" d="M47.24,42.42v5.18h4.49v-5.18h-4.49Z"/>
          <path class="cls-3" d="M59.13,42.42v5.18h4.49v-5.18h-4.49Z"/>
          <path class="cls-3" d="M75.16,40.79v7.25h4.98v-7.25h-4.98Z"/>
        </g>
        <path class="cls-4" d="M74.32,39.11h6.66c.49,0,.89.39.89.84v8.93c0,.49-.39.84-.89.84h-6.66c-.49,0-.84-.35-.84-.84v-8.93c0-.44.35-.84.84-.84ZM74.32,54.7h6.66c.49,0,.89.39.89.89v8.93c0,.44-.39.84-.89.84h-6.66c-.49,0-.84-.39-.84-.84v-8.93c0-.49.35-.89.84-.89ZM74.32,70.34h6.66c.49,0,.89.39.89.84v8.93c0,.49-.39.84-.89.84h-6.66c-.49,0-.84-.35-.84-.84v-8.93c0-.44.35-.84.84-.84ZM71.32,83.6h12.73v-47.16h-12.73v47.16Z"/>
        <path class="cls-3" d="M80.15,72.01h-4.98v7.25h4.98v-7.25Z"/>
        <path class="cls-3" d="M75.16,63.63h4.98v-7.2h-4.98v7.2Z"/>
        <path class="cls-6" d="M71.32,34.72h15.34v-3.26h-15.34v3.26Z"/>
        <path class="cls-3" d="M63.62,58.1v-5.18h-4.49v5.18h4.49Z"/>
        <path class="cls-3" d="M41.18,65.16v18.45h7.45v-18.45h-7.45Z"/>
        <path class="cls-6" d="M26.72,24.95h9.57v-2.91h-9.57v2.91Z"/>
        <path class="cls-2" d="M90.7,83.89h-4.98v-47.16h1.78c.49,0,.84-.39.84-.84v-5.03c0-.44-.35-.84-.84-.84h-16.18v-3.06h1.78c.44,0,.84-.39.84-.84v-4.69c0-.44-.39-.84-.84-.84h-10.41v-9.18c0-.84-.74-1.53-1.58-1.53h-23.23c-.89,0-1.58.69-1.58,1.53v9.18h-10.41c-.49,0-.84.39-.84.84v4.69c0,.44.35.84.84.84h1.78v3.06H11.48c-.49,0-.89.39-.89.84v5.03c0,.44.39.84.89.84h1.73v47.16h-4.98c-.44,0-.84.39-.84.84v5.28c0,.44.39.84.84.84h82.48c.49,0,.89-.39.89-.84v-5.28c0-.44-.39-.84-.89-.84ZM84.04,83.89h-12.73v-47.16h12.73v47.16ZM86.66,31.75v3.26h-15.34v-3.26h15.34ZM72.2,22.33v2.91h-9.52v-2.91h9.52ZM38.02,11.58h22.94v24.07h-22.94V11.58ZM26.72,22.33h9.57v2.91h-9.57v-2.91ZM36.29,26.97v8.78c0,.89.69,1.58,1.58,1.58h23.23c.84,0,1.58-.69,1.58-1.58v-8.78h6.91v56.92H29.34V26.97h6.96ZM12.32,31.75h15.34v3.26h-15.34v-3.26ZM14.93,36.73h12.73v47.16h-12.73v-47.16ZM89.86,89.12H9.11v-3.5h80.75v3.5Z"/>
      </g>
    </g>
  </g>
</svg>